<svg width="100" height="100" fill="none" xmlns="http://www.w3.org/2000/svg"><rect x="50" y=".707" width="69.711" height="69.711" rx="4.34" transform="rotate(45 50 .707)" stroke="#474554"/><path opacity=".996" d="M41.357 71.595h-3.384v-5a3.538 3.538 0 0 1-.53-.215 4.632 4.632 0 0 1-1.12-.779l-.09-.086c-.357-.34-.593-.566-.797-.834-.205-.269-.373-.573-.6-1.084a4.298 4.298 0 0 1-.26-.793 5.503 5.503 0 0 1-.13-1.428 5.804 5.804 0 0 1 .22-1.462 4.38 4.38 0 0 1 .305-.788c.135-.258.293-.502.472-.732.163-.21.337-.41.523-.6.188-.197.387-.383.596-.557l-2.204-7.246c-.412.209-.807.45-1.181.72-.4.304-.78.633-1.137.985l-2.355-2.434.84-.808c.225-.202.464-.386.718-.55.26-.176.574-.374.933-.59.6-.36 1.131-.649 1.154-.66l-3.477-11.502H28v-3.396h.821l-.558-1.78L31.547 29l4.997 16.53.001-.001c.044-.009.447-.085 1.016-.16.738-.099 1.481-.152 2.226-.158a13.128 13.128 0 0 1 1.457.088c.34.038.691.09 1.043.153.595.108.995.213.999.214l3.292-10.732 1.733 5.944-1.85 6.049c.57.32 1.119.675 1.645 1.063.817.61 1.642 1.39 1.65 1.397L47.31 51.78l-1.873-1.519-2.151 7.071c.201.157.388.33.56.52.178.19.341.395.489.61.174.255.32.528.438.814l.005.013c.07.161.129.327.178.495.063.245.112.492.148.742.114.712.132 1.628.133 1.637-.04.314-.107.623-.2.925-.088.3-.203.593-.34.875a4.303 4.303 0 0 1-.585.898c-.177.218-.369.424-.573.616-.233.204-.481.39-.743.555-.306.2-.633.366-.975.497-.15.06-.304.112-.46.156l-.005 4.911zm-1.561-12.16a2.023 2.023 0 1 0 .005 4.046 2.023 2.023 0 0 0-.005-4.047zm-.153-10.815c-.484.002-.967.032-1.447.089-.378.043-.632.088-.634.089l2.246 7.31h.318l2.168-7.17c-.002 0-.3-.07-.745-.144a12.624 12.624 0 0 0-1.632-.17 9.084 9.084 0 0 0-.274-.004zm18.153 22.477L46.693 32.843l.018-.026 1.996-3.635 3.823 2 11.1 38.197-5.834 1.718zm2.846-5.964l-2.6.773.895 3.097 2.606-.763-.901-3.107zm1.952-1.883l-3.175-10.838 1.94.569.492-1.585-2.606-.734 1.037-3.166 1.596.52.481-1.586-1.625-.49 1.003-3.2 1.641.551.45-1.553-1.626-.538 1.013-3.197 2.605.798.483-1.604-2.635-.74 1.021-3.203 1.662.55.473-1.56-1.673-.521.84-2.676 6.637 1.962L62.594 63.25z" fill="#474554"/></svg>