<svg width="" height="" viewBox="0 0 901 116" fill="none" xmlns="http://www.w3.org/2000/svg">
<path d="M19.3263 10.5802L26.128 42.5242C27.0997 46.8967 27.9095 51.1478 28.5572 55.2774C29.286 59.3261 29.8933 63.5772 30.3791 68.0307H30.6221C31.2698 63.5772 31.9986 59.2451 32.8083 55.0345C33.6181 50.8239 34.4683 46.6538 35.359 42.5242L42.6466 10.5802H62.4446L69.8536 42.5242C70.8253 46.6538 71.6755 50.8239 72.4043 55.0345C73.133 59.1642 73.8213 63.4962 74.4691 68.0307H74.712C75.2788 63.4962 75.9671 59.1237 76.7768 54.9131C77.5866 50.6215 78.3963 46.4918 79.206 42.5242L85.7649 10.5802H104.348L85.7649 87.0999H65.3596L57.7076 54.5487C56.7359 50.4191 55.8048 46.2489 54.914 42.0383C54.0233 37.7467 53.1731 33.4147 52.3634 29.0421H52.1205C51.3917 33.4147 50.582 37.7062 49.6913 41.9169C48.8006 46.1275 47.9099 50.2976 47.0191 54.4272L39.6101 87.0999H19.4477L0.5 10.5802H19.3263Z" fill="#484655"/>
<path d="M161.271 63.1723H123.619V63.6582C123.619 67.7068 125.198 70.6624 128.356 72.5248C131.513 74.3871 135.481 75.3183 140.259 75.3183C143.579 75.3183 146.494 74.9944 149.004 74.3466C151.514 73.6989 153.619 72.9296 155.32 72.0389L158.599 84.4278C156.413 85.4805 153.619 86.4117 150.218 87.2214C146.898 88.0311 142.809 88.436 137.951 88.436C133.578 88.436 129.408 87.8692 125.44 86.7356C121.554 85.521 118.112 83.6991 115.116 81.2699C112.201 78.8407 109.853 75.7637 108.072 72.0389C106.371 68.3141 105.521 63.8606 105.521 58.6783C105.521 54.0628 106.209 49.8522 107.586 46.0465C109.043 42.1598 111.068 38.8399 113.659 36.0868C116.25 33.3337 119.327 31.2284 122.89 29.7709C126.534 28.2324 130.542 27.4631 134.914 27.4631C142.931 27.4631 149.328 29.8923 154.105 34.7507C158.882 39.6091 161.271 46.5323 161.271 55.5204V63.1723ZM142.931 50.9049C142.931 49.5283 142.769 48.1923 142.445 46.8967C142.121 45.6011 141.595 44.4675 140.866 43.4958C140.218 42.4432 139.327 41.6335 138.194 41.0666C137.141 40.4189 135.846 40.095 134.307 40.095C131.473 40.095 129.125 41.1071 127.262 43.1315C125.4 45.0748 124.307 47.7469 123.983 51.1478L142.931 50.9049Z" fill="#484655"/>
<path d="M212.578 74.3466C216.221 74.3466 219.298 74.0228 221.809 73.375C224.319 72.7272 226.424 71.877 228.124 70.8243L231.768 84.0634C230.149 85.0351 227.517 86.0068 223.873 86.9785C220.311 87.9502 215.897 88.436 210.634 88.436C204.642 88.436 199.136 87.5048 194.116 85.6424C189.095 83.78 184.804 81.1484 181.241 77.7475C177.678 74.2657 174.884 70.0956 172.86 65.2372C170.917 60.2978 169.945 54.7916 169.945 48.7186C169.945 42.8076 170.876 37.4228 172.739 32.5644C174.682 27.6251 177.395 23.4549 180.877 20.0541C184.439 16.5722 188.731 13.9001 193.751 12.0377C198.853 10.0944 204.561 9.12268 210.877 9.12268C216.221 9.12268 220.553 9.64901 223.873 10.7017C227.274 11.6733 229.946 12.6855 231.89 13.7382L227.76 27.2202C225.898 26.1676 223.671 25.2364 221.08 24.4266C218.57 23.6169 215.776 23.212 212.699 23.212C209.46 23.212 206.424 23.6979 203.59 24.6696C200.755 25.5603 198.286 27.0178 196.18 29.0421C194.075 31.0664 192.415 33.6981 191.201 36.937C189.986 40.095 189.379 43.9817 189.379 48.5971C189.379 52.8887 189.946 56.654 191.079 59.8929C192.294 63.1318 193.954 65.8445 196.059 68.0307C198.164 70.136 200.594 71.715 203.347 72.7677C206.181 73.8203 209.258 74.3466 212.578 74.3466Z" fill="#484655"/>
<path d="M242.026 33.9005C245.346 31.9571 249.071 30.4187 253.2 29.285C257.411 28.0704 261.702 27.4631 266.075 27.4631C273.282 27.4631 279.071 29.204 283.444 32.6859C287.816 36.1677 290.003 41.7144 290.003 49.3259V87.0999H276.278L274.699 81.2699H274.213C272.593 83.3752 270.326 85.1161 267.411 86.4926C264.577 87.7882 261.217 88.436 257.33 88.436C254.01 88.436 251.095 87.9502 248.585 86.9785C246.156 86.0068 244.131 84.7112 242.512 83.0918C240.892 81.4723 239.637 79.5694 238.746 77.3831C237.937 75.1159 237.532 72.7272 237.532 70.217C237.532 66.8161 238.261 63.9011 239.718 61.4719C241.257 59.0427 243.281 57.0589 245.791 55.5204C248.382 53.9819 251.378 52.8482 254.779 52.1195C258.261 51.3907 261.945 51.0263 265.832 51.0263H271.905V47.8684C271.905 45.6821 271.136 44.0222 269.597 42.8885C268.059 41.6739 265.873 41.0666 263.038 41.0666C260.609 41.0666 258.221 41.431 255.872 42.1598C253.524 42.8885 250.933 44.0626 248.099 45.6821L242.026 33.9005ZM272.026 61.9577L268.018 62.0792C265.751 62.1602 263.848 62.4031 262.31 62.808C260.771 63.2128 259.516 63.7391 258.544 64.3869C257.654 64.9537 257.006 65.6825 256.601 66.5732C256.196 67.3829 255.994 68.2332 255.994 69.1239C255.994 71.634 256.723 73.375 258.18 74.3466C259.719 75.2374 261.459 75.6827 263.403 75.6827C265.346 75.6827 267.087 75.1159 268.626 73.9823C270.245 72.8486 271.379 71.5936 272.026 70.217V61.9577Z" fill="#484655"/>
<path d="M321.062 87.0999H303.086V28.7992H317.054L319.119 36.0868C321.71 33.4147 324.625 31.3094 327.864 29.7709C331.103 28.2324 334.625 27.4631 338.431 27.4631C344.99 27.4631 350.01 29.2445 353.492 32.8074C356.974 36.3702 358.715 41.593 358.715 48.4757V87.0999H340.739V50.2976C340.739 47.4635 340.05 45.2368 338.674 43.6173C337.378 41.9169 335.435 41.0666 332.844 41.0666C330.9 41.0666 328.836 41.6335 326.649 42.7671C324.544 43.9007 322.682 45.3987 321.062 47.2611V87.0999Z" fill="#484655"/>
<path d="M401.131 10.5802C407.204 10.5802 412.71 11.3494 417.649 12.8879C422.589 14.4264 426.799 16.7342 430.281 19.8111C433.844 22.8881 436.557 26.7344 438.419 31.3498C440.362 35.8843 441.334 41.1881 441.334 47.2611C441.334 54.0628 440.2 59.9739 437.933 64.9942C435.666 69.9336 432.548 74.0632 428.581 77.3831C424.694 80.6221 420.119 83.0513 414.856 84.6707C409.592 86.2902 404.005 87.0999 398.094 87.0999H373.802V10.5802H401.131ZM392.264 73.0106H397.001C400.24 73.0106 403.358 72.6057 406.354 71.796C409.431 70.9863 412.103 69.6097 414.37 67.6664C416.637 65.642 418.459 62.9699 419.836 59.65C421.212 56.3301 421.9 52.2005 421.9 47.2611C421.9 39.8925 419.836 34.3054 415.706 30.4996C411.576 26.6129 405.989 24.6696 398.945 24.6696H392.264V73.0106Z" fill="#484655"/>
<path d="M505.368 63.1723H467.715V63.6582C467.715 67.7068 469.294 70.6624 472.452 72.5248C475.61 74.3871 479.578 75.3183 484.356 75.3183C487.675 75.3183 490.59 74.9944 493.101 74.3466C495.611 73.6989 497.716 72.9296 499.417 72.0389L502.696 84.4278C500.51 85.4805 497.716 86.4117 494.315 87.2214C490.995 88.0311 486.906 88.436 482.048 88.436C477.675 88.436 473.505 87.8692 469.537 86.7356C465.651 85.521 462.209 83.6991 459.213 81.2699C456.298 78.8407 453.95 75.7637 452.169 72.0389C450.468 68.3141 449.618 63.8606 449.618 58.6783C449.618 54.0628 450.306 49.8522 451.683 46.0465C453.14 42.1598 455.165 38.8399 457.756 36.0868C460.347 33.3337 463.424 31.2284 466.987 29.7709C470.631 28.2324 474.639 27.4631 479.011 27.4631C487.028 27.4631 493.425 29.8923 498.202 34.7507C502.979 39.6091 505.368 46.5323 505.368 55.5204V63.1723ZM487.028 50.9049C487.028 49.5283 486.866 48.1923 486.542 46.8967C486.218 45.6011 485.692 44.4675 484.963 43.4958C484.315 42.4432 483.424 41.6335 482.291 41.0666C481.238 40.4189 479.942 40.095 478.404 40.095C475.57 40.095 473.222 41.1071 471.359 43.1315C469.497 45.0748 468.404 47.7469 468.08 51.1478L487.028 50.9049Z" fill="#484655"/>
<path d="M551.48 28.7992H570.549L550.144 87.0999H528.767L509.334 28.7992H528.524L535.569 54.3058L539.577 74.5896H540.063L544.071 54.3058L551.48 28.7992Z" fill="#484655"/>
<path d="M630.031 63.1723H592.378V63.6582C592.378 67.7068 593.957 70.6624 597.115 72.5248C600.273 74.3871 604.241 75.3183 609.018 75.3183C612.338 75.3183 615.253 74.9944 617.763 74.3466C620.273 73.6989 622.379 72.9296 624.079 72.0389L627.358 84.4278C625.172 85.4805 622.379 86.4117 618.978 87.2214C615.658 88.0311 611.569 88.436 606.71 88.436C602.338 88.436 598.168 87.8692 594.2 86.7356C590.313 85.521 586.872 83.6991 583.876 81.2699C580.961 78.8407 578.613 75.7637 576.831 72.0389C575.131 68.3141 574.28 63.8606 574.28 58.6783C574.28 54.0628 574.969 49.8522 576.345 46.0465C577.803 42.1598 579.827 38.8399 582.418 36.0868C585.009 33.3337 588.086 31.2284 591.649 29.7709C595.293 28.2324 599.301 27.4631 603.674 27.4631C611.69 27.4631 618.087 29.8923 622.864 34.7507C627.642 39.6091 630.031 46.5323 630.031 55.5204V63.1723ZM611.69 50.9049C611.69 49.5283 611.528 48.1923 611.204 46.8967C610.88 45.6011 610.354 44.4675 609.625 43.4958C608.977 42.4432 608.087 41.6335 606.953 41.0666C605.9 40.4189 604.605 40.095 603.066 40.095C600.232 40.095 597.884 41.1071 596.022 43.1315C594.159 45.0748 593.066 47.7469 592.742 51.1478L611.69 50.9049Z" fill="#484655"/>
<path d="M641.498 87.0999V0.256104H659.231V87.0999H641.498Z" fill="#484655"/>
<path d="M731.446 57.5852C731.446 62.3626 730.636 66.6542 729.017 70.4599C727.478 74.2657 725.332 77.5046 722.579 80.1767C719.826 82.8488 716.587 84.9137 712.862 86.3712C709.138 87.7477 705.129 88.436 700.838 88.436C696.546 88.436 692.538 87.7882 688.813 86.4926C685.17 85.1161 682.012 83.1727 679.339 80.6626C676.667 78.1524 674.562 75.0754 673.024 71.4316C671.485 67.7068 670.716 63.4962 670.716 58.7998C670.716 53.8604 671.485 49.4474 673.024 45.5606C674.643 41.6739 676.829 38.3945 679.582 35.7224C682.336 33.0503 685.574 31.0259 689.299 29.6494C693.024 28.1919 697.032 27.4631 701.324 27.4631C705.615 27.4631 709.583 28.1109 713.227 29.4065C716.952 30.7021 720.15 32.6454 722.822 35.2366C725.494 37.7467 727.6 40.8642 729.138 44.589C730.676 48.3137 731.446 52.6458 731.446 57.5852ZM712.984 58.1925C712.984 55.0345 712.66 52.3624 712.012 50.1761C711.364 47.9089 710.474 46.087 709.34 44.7104C708.206 43.2529 706.911 42.2003 705.453 41.5525C703.996 40.9047 702.498 40.5808 700.959 40.5808C699.421 40.5808 697.923 40.8642 696.465 41.431C695.089 41.9978 693.834 42.9695 692.7 44.3461C691.647 45.7226 690.797 47.5445 690.149 49.8118C689.502 51.998 689.178 54.7916 689.178 58.1925C689.178 64.1035 690.392 68.4356 692.822 71.1887C695.251 73.9418 698.044 75.3183 701.202 75.3183C702.741 75.3183 704.198 75.0349 705.575 74.4681C707.032 73.8203 708.287 72.8486 709.34 71.5531C710.474 70.1765 711.364 68.3951 712.012 66.2088C712.66 64.0226 712.984 61.3504 712.984 58.1925Z" fill="#484655"/>
<path d="M771.091 88.436C769.067 88.436 767.083 88.1931 765.139 87.7072C763.196 87.3024 761.617 86.7761 760.403 86.1283V115.036H742.548V28.7992H755.909L757.609 34.9936C759.957 32.6454 762.67 30.8235 765.747 29.5279C768.905 28.1514 772.346 27.4631 776.071 27.4631C779.796 27.4631 783.197 28.1514 786.274 29.5279C789.351 30.9045 791.942 32.8883 794.047 35.4795C796.152 37.9897 797.772 41.0666 798.905 44.7104C800.12 48.3542 800.727 52.4029 800.727 56.8564C800.727 61.8768 799.958 66.3708 798.42 70.3385C796.881 74.2252 794.776 77.5046 792.104 80.1767C789.432 82.8488 786.274 84.9137 782.63 86.3712C779.067 87.7477 775.221 88.436 771.091 88.436ZM770.97 40.8237C768.54 40.8237 766.395 41.3905 764.532 42.5242C762.67 43.6578 761.293 44.7914 760.403 45.925V72.6462C762.427 74.4276 765.22 75.3183 768.783 75.3183C770.403 75.3183 772.022 74.9944 773.642 74.3466C775.261 73.6989 776.678 72.6867 777.893 71.3102C779.188 69.8526 780.241 67.9902 781.051 65.723C781.86 63.4557 782.265 60.6622 782.265 57.3423C782.265 52.7268 781.294 48.8401 779.35 45.6821C777.407 42.4432 774.613 40.8237 770.97 40.8237Z" fill="#484655"/>
<path d="M900.5 10.5802V24.9125H879.609V87.0999H861.147V24.9125H840.742V10.5802H900.5Z" fill="#484655"/>
<path d="M815.583 98.0313V39.7306H833.559V75.3183L815.583 98.0313ZM824.571 28.3134C821.494 28.3134 819.146 27.4631 817.527 25.7627C815.907 23.9813 815.098 21.876 815.098 19.4468C815.098 17.0176 815.907 14.9528 817.527 13.2523C819.227 11.4709 821.575 10.5802 824.571 10.5802C827.567 10.5802 829.875 11.4304 831.495 13.1309C833.195 14.8313 834.045 16.9366 834.045 19.4468C834.045 21.9569 833.236 24.0622 831.616 25.7627C829.997 27.4631 827.648 28.3134 824.571 28.3134Z" fill="#CC8FC2"/>
</svg>
