<svg width="320" height="512" viewBox="0 0 320 512" fill="none" xmlns="http://www.w3.org/2000/svg">
<g clip-path="url(#clip0)">
<path d="M143 256.3L6.99995 120.3C-2.40005 110.9 -2.40005 95.7 6.99995 86.4L29.6 63.8C39 54.4 54.2 54.4 63.5 63.8L159.9 160.2L256.3 63.8C265.7 54.4 280.9 54.4 290.2 63.8L313 86.3C322.4 95.7 322.4 110.9 313 120.2L177 256.2C167.6 265.7 152.4 265.7 143 256.3ZM177 448.3L313 312.3C322.4 302.9 322.4 287.7 313 278.4L290.4 255.8C281 246.4 265.8 246.4 256.5 255.8L160 352.1L63.5999 255.7C54.1999 246.3 39 246.3 29.7 255.7L6.99995 278.3C-2.40005 287.7 -2.40005 302.9 6.99995 312.2L143 448.2C152.4 457.7 167.6 457.7 177 448.3Z" fill="#484655"/>
</g>
<defs>
<clipPath id="clip0">
<rect width="320" height="512" fill="white"/>
</clipPath>
</defs>
</svg>
