<svg width="157" height="157" viewBox="0 0 157 157" fill="none" xmlns="http://www.w3.org/2000/svg">
<g filter="url(#filter0_d)">
<rect x="78.7432" width="107.117" height="107.117" rx="11.8361" transform="rotate(45 78.7432 0)" fill="url(#paint0_linear)"/>
</g>
<path opacity="0.996" d="M63.9771 107.526H58.8505V99.9526C58.5742 99.8654 58.3055 99.7559 58.047 99.6253C57.7694 99.4883 57.5011 99.3331 57.244 99.1607C56.9269 98.9484 56.6286 98.7094 56.3523 98.4461L56.2153 98.3153C55.6743 97.799 55.317 97.4579 55.0081 97.0525C54.6978 96.6452 54.4427 96.1843 54.0982 95.4099C53.9288 95.0232 53.7974 94.6211 53.7056 94.209C53.6253 93.8526 53.5685 93.4914 53.5356 93.1275C53.5003 92.768 53.4906 92.4064 53.5067 92.0454C53.514 91.6715 53.5467 91.2985 53.6045 90.929C53.6598 90.5583 53.7387 90.1915 53.8408 89.8309C53.9563 89.419 54.1114 89.0192 54.3038 88.6372C54.5079 88.2466 54.7472 87.8755 55.0187 87.5285C55.2653 87.2105 55.5294 86.9065 55.8097 86.6179C56.0953 86.3202 56.3972 86.0386 56.714 85.7744L53.3745 74.7986C52.7501 75.1143 52.1518 75.4792 51.5852 75.8897C50.9793 76.3491 50.404 76.8473 49.8628 77.3813L46.2955 73.6942C46.3002 73.6898 46.6086 73.3947 47.5687 72.4706C47.9082 72.1643 48.2715 71.8856 48.6553 71.637C49.0493 71.3707 49.5248 71.0704 50.0688 70.7443C50.9785 70.1991 51.7833 69.7604 51.8169 69.7421L46.5503 52.3199H43.7432V47.1742H44.9868L44.1423 44.4796L49.1171 43L56.686 68.0394L56.6881 68.039C56.7548 68.0262 57.3653 67.9107 58.2262 67.7981C59.3442 67.6475 60.4704 67.5669 61.5984 67.5569C61.719 67.5569 61.8396 67.5581 61.9565 67.5604C62.5389 67.5723 63.1611 67.6157 63.8061 67.6896C64.322 67.7487 64.8534 67.8271 65.3855 67.9232C66.2867 68.0856 66.8934 68.2455 66.8994 68.2471L71.886 51.9891L74.5121 60.9929L71.7093 70.1565C72.5722 70.641 73.4041 71.1787 74.2002 71.7665C75.4384 72.6912 76.6878 73.8723 76.7003 73.8841L72.9968 77.5078L70.16 75.2064L66.9009 85.9181C67.2053 86.156 67.4893 86.4189 67.7499 86.7041C68.0193 86.9938 68.2665 87.3033 68.4894 87.6301C68.7536 88.0161 68.976 88.429 69.153 88.862L69.1609 88.8817C69.2662 89.1263 69.3565 89.3771 69.4313 89.6326C69.5261 90.0027 69.6008 90.3777 69.6548 90.756C69.8284 91.8348 69.8555 93.2222 69.8558 93.2361C69.7956 93.711 69.6948 94.1799 69.5546 94.6376C69.4194 95.0928 69.2466 95.5359 69.038 95.9625C68.8008 96.4514 68.5034 96.9086 68.1527 97.3236C67.8835 97.6528 67.5935 97.9645 67.2846 98.2568C66.9317 98.5655 66.5553 98.8462 66.1589 99.0965C65.6944 99.3991 65.1992 99.6517 64.6816 99.8501C64.4537 99.9405 64.2214 100.019 63.9855 100.086L63.9774 107.526L63.9771 107.526ZM61.612 89.1038C60.8522 89.1048 60.1199 89.3879 59.5571 89.8983C58.9943 90.4087 58.6411 91.1099 58.566 91.8659C58.491 92.6219 58.6994 93.3789 59.1509 93.99C59.6023 94.601 60.2647 95.0226 61.0094 95.173C61.7541 95.3233 62.5281 95.1917 63.1813 94.8037C63.8345 94.4157 64.3203 93.7988 64.5444 93.0729C64.7686 92.347 64.7151 91.5637 64.3944 90.8749C64.0737 90.1862 63.5086 89.6411 62.8087 89.3454C62.4301 89.1852 62.0231 89.103 61.612 89.1038ZM61.3805 72.7211C60.6478 72.7244 59.916 72.7694 59.1885 72.8559C58.6161 72.9221 58.2312 72.99 58.2277 72.9906L61.6306 84.0654H62.1129L65.3967 73.2033C65.3931 73.2025 64.9431 73.0973 64.2681 72.9851C63.4503 72.8457 62.6244 72.7595 61.7954 72.7272C61.6607 72.7231 61.521 72.7211 61.3805 72.7211ZM88.8797 106.771L72.0603 48.8216L72.087 48.7822L75.1109 43.2761L80.9024 46.3052L97.7163 104.169L88.8797 106.771ZM93.1914 97.7367L89.2527 98.9069L90.6085 103.599L94.5556 102.443L93.1913 97.7368L93.1914 97.7367ZM96.1479 94.8846L91.3395 78.4654L94.278 79.3277L95.0222 76.9272L91.0757 75.8154L92.6456 71.0183L95.0638 71.8059L95.7927 69.4044L93.331 68.6612L94.8495 63.8128L97.336 64.649L98.0177 62.2969L95.5546 61.4807L97.0891 56.639L101.035 57.8471L101.766 55.4168L97.7757 54.2971L99.3223 49.4439L101.839 50.2777L102.556 47.9131L100.021 47.125L101.294 43.0716L111.348 46.0429L96.1479 94.8846Z" fill="#FEFEFE"/>
<defs>
<filter id="filter0_d" x="0.632773" y="0" width="156.221" height="156.221" filterUnits="userSpaceOnUse" color-interpolation-filters="sRGB">
<feFlood flood-opacity="0" result="BackgroundImageFix"/>
<feColorMatrix in="SourceAlpha" type="matrix" values="0 0 0 0 0 0 0 0 0 0 0 0 0 0 0 0 0 0 127 0"/>
<feOffset dy="2.36723"/>
<feGaussianBlur stdDeviation="1.18361"/>
<feColorMatrix type="matrix" values="0 0 0 0 0 0 0 0 0 0 0 0 0 0 0 0 0 0 0.15 0"/>
<feBlend mode="normal" in2="BackgroundImageFix" result="effect1_dropShadow"/>
<feBlend mode="normal" in="SourceGraphic" in2="effect1_dropShadow" result="shape"/>
</filter>
<linearGradient id="paint0_linear" x1="185.86" y1="0" x2="78.7432" y2="107.117" gradientUnits="userSpaceOnUse">
<stop stop-color="#FBA8D5"/>
<stop offset="1" stop-color="#CC8FC2"/>
</linearGradient>
</defs>
</svg>
