<svg width="100" height="100" viewBox="0 0 100 100" fill="none" xmlns="http://www.w3.org/2000/svg">
<rect x="50" y="0.707107" width="69.7107" height="69.7107" rx="4.34" transform="rotate(45 50 0.707107)" stroke="#474554"/>
<path opacity="0.996" d="M41.357 71.5954H37.9727V66.5958C37.7904 66.5383 37.613 66.466 37.4423 66.3798C37.2591 66.2894 37.082 66.1869 36.9123 66.0731C36.7029 65.933 36.506 65.7752 36.3236 65.6014L36.2332 65.515C35.8761 65.1742 35.6402 64.949 35.4363 64.6814C35.2314 64.4125 35.063 64.1083 34.8357 63.5971C34.7238 63.3419 34.637 63.0764 34.5765 62.8044C34.5235 62.5691 34.486 62.3306 34.4643 62.0905C34.4409 61.8531 34.4345 61.6144 34.4452 61.3761C34.45 61.1293 34.4716 60.8831 34.5097 60.6392C34.5462 60.3944 34.5983 60.1523 34.6657 59.9142C34.742 59.6423 34.8443 59.3785 34.9714 59.1263C35.1061 58.8685 35.264 58.6235 35.4433 58.3944C35.6061 58.1845 35.7804 57.9838 35.9655 57.7933C36.154 57.5967 36.3532 57.4109 36.5624 57.2365L34.3579 49.9911C33.9457 50.1995 33.5507 50.4403 33.1767 50.7113C32.7768 51.0146 32.397 51.3435 32.0397 51.696L29.6849 49.262C29.688 49.2591 29.8916 49.0643 30.5254 48.4543C30.7495 48.2521 30.9893 48.0681 31.2426 47.904C31.5027 47.7282 31.8166 47.53 32.1757 47.3147C32.7762 46.9548 33.3075 46.6652 33.3297 46.6532L29.8531 35.1523H28V31.7555H28.821L28.2635 29.9767L31.5475 29L36.5439 45.5291L36.5453 45.5289C36.5893 45.5204 36.9923 45.4442 37.5606 45.3699C38.2986 45.2704 39.0421 45.2173 39.7867 45.2106C39.8663 45.2106 39.9459 45.2114 40.0231 45.213C40.4075 45.2208 40.8183 45.2494 41.244 45.2982C41.5846 45.3373 41.9354 45.389 42.2866 45.4524C42.8816 45.5597 43.2821 45.6652 43.286 45.6662L46.5778 34.9339L48.3113 40.8776L46.4611 46.9267C47.0308 47.2465 47.5799 47.6015 48.1055 47.9895C48.9229 48.5999 49.7476 49.3796 49.7559 49.3874L47.3111 51.7795L45.4384 50.2603L43.287 57.3313C43.488 57.4884 43.6754 57.6619 43.8475 57.8502C44.0253 58.0414 44.1885 58.2457 44.3356 58.4615C44.51 58.7163 44.6569 58.9888 44.7737 59.2747L44.7789 59.2877C44.8484 59.4491 44.908 59.6147 44.9574 59.7834C45.02 60.0277 45.0693 60.2753 45.1049 60.5249C45.2195 61.2371 45.2374 62.1529 45.2376 62.1621C45.1979 62.4756 45.1314 62.7852 45.0388 63.0873C44.9495 63.3878 44.8354 63.6803 44.6978 63.9619C44.5412 64.2846 44.3449 64.5864 44.1134 64.8604C43.9357 65.0777 43.7442 65.2835 43.5403 65.4764C43.3074 65.6802 43.0589 65.8655 42.7972 66.0307C42.4906 66.2305 42.1637 66.3973 41.822 66.5282C41.6716 66.5879 41.5182 66.6398 41.3625 66.6838L41.3571 71.5953L41.357 71.5954ZM39.7956 59.4343C39.2941 59.435 38.8107 59.6219 38.4392 59.9588C38.0677 60.2957 37.8345 60.7585 37.785 61.2576C37.7354 61.7567 37.873 62.2564 38.171 62.6598C38.469 63.0632 38.9063 63.3415 39.3979 63.4407C39.8895 63.54 40.4004 63.4531 40.8316 63.1969C41.2628 62.9408 41.5835 62.5336 41.7314 62.0544C41.8794 61.5752 41.8441 61.0581 41.6324 60.6035C41.4207 60.1488 41.0477 59.789 40.5857 59.5938C40.3357 59.488 40.067 59.4338 39.7956 59.4343V59.4343ZM39.6428 48.6197C39.1592 48.6219 38.6761 48.6516 38.1958 48.7086C37.818 48.7523 37.5639 48.7972 37.5616 48.7976L39.8079 56.1083H40.1263L42.294 48.938C42.2917 48.9375 41.9946 48.868 41.549 48.794C41.0092 48.7019 40.464 48.645 39.9168 48.6237C39.8278 48.621 39.7356 48.6197 39.6428 48.6197V48.6197ZM57.7958 71.097L46.6929 32.843L46.7105 32.817L48.7067 29.1823L52.5297 31.1819L63.6291 69.379L57.7958 71.097ZM60.642 65.1331L58.042 65.9056L58.937 69.0032L61.5426 68.24L60.642 65.1332L60.642 65.1331ZM62.5937 63.2504L59.4195 52.4116L61.3593 52.9808L61.8506 51.3962L59.2454 50.6623L60.2817 47.4956L61.8781 48.0155L62.3592 46.4302L60.7342 45.9396L61.7366 42.7391L63.378 43.2911L63.828 41.7383L62.2021 41.1996L63.215 38.0034L65.8197 38.8009L66.3027 37.1966L63.6682 36.4575L64.6892 33.2538L66.3505 33.8042L66.8237 32.2433L65.1506 31.723L65.9907 29.0473L72.6277 31.0087L62.5937 63.2504Z" fill="#474554"/>
</svg>
